<svg width="41" height="41" xmlns="http://www.w3.org/2000/svg"><defs><linearGradient x1="3.9267%" y1="3.7205%" x2="95.6575%" y2="96.046%" id="a"><stop stop-color="#6369FF" stop-opacity=".3" offset="0%"/><stop stop-color="#6369FF" stop-opacity="0" offset="100%"/></linearGradient></defs><g fill="none" fill-rule="evenodd"><path d="M28.381 12.7619C19.4286 3.8095 8.9524-.381 5.1429 3.5239c-3.9048 3.9047.2857 14.2856 9.238 23.238C23.3334 35.7143 33.8096 39.9048 37.619 36c3.8096-3.9048-.2857-14.2857-9.238-23.2381z" fill="url(#a)" fill-rule="nonzero" transform="translate(-.7 1)"/><g transform="translate(-.7 1)"><circle stroke="#6369FF" stroke-width="2" fill="#FFF" fill-rule="nonzero" cx="21.3333" cy="19.8095" r="4.6667"/><circle fill="#6369FF" fill-rule="nonzero" cx="21.3333" cy="19.8095" r="1.619"/><path d="M37.619 36c3.9048-3.9048-.2857-14.2857-9.238-23.2381C19.4286 3.8095 8.9524-.381 5.1429 3.5239" stroke="#6369FF" stroke-width="2" stroke-linecap="round"/><g stroke-linecap="round" stroke-width="2"><path d="M5.1429 36c3.9047 3.9048 14.2857-.2857 23.238-9.2381 8.9524-8.9524 13.0477-19.3333 9.2381-23.238" stroke="#120078"/><path d="M37.619 3.5238c-3.9047-3.9048-14.2857.2857-23.3333 9.2381C5.2381 21.7143 1.2381 32.0952 5.143 36" stroke="#6369FF"/></g><circle stroke="#120078" stroke-width="2" fill="#FFF" fill-rule="nonzero" transform="rotate(-45 36.1813 2.8275)" cx="36.1813" cy="2.8275" r="1.9047"/><path d="M5.1429 3.5238c-3.9048 3.9048.2857 14.2857 9.238 23.2381C23.3334 35.7143 33.8096 39.9048 37.619 36" stroke="#120078" stroke-width="2" stroke-linecap="round"/><circle stroke="#120078" stroke-width="2" fill="#FFF" fill-rule="nonzero" transform="rotate(-45 4.3732 11.2293)" cx="4.3732" cy="11.2293" r="2.4762"/></g></g></svg>
