<svg width="41" height="41" xmlns="http://www.w3.org/2000/svg"><defs><linearGradient x1="-.1412%" y1="50.0907%" x2="99.9144%" y2="50.0907%" id="a"><stop stop-color="#6369FF" stop-opacity=".5" offset="0%"/><stop stop-color="#6369FF" stop-opacity=".1" offset="100%"/></linearGradient></defs><g transform="translate(2 4)" fill="none" fill-rule="evenodd"><path d="M5.8759 8.8138H0v22.463c0 1.6525 1.3466 2.999 2.938 2.999h.2448" stroke="#6369FF" stroke-width="2"/><path d="M3.1828 34.2759h28.0327c2.081 0 3.7336-1.6526 3.7336-3.7337V0H6.182v31.338c0 1.5913-1.3466 2.9379-2.9991 2.9379" stroke="#120078" stroke-width="2"/><circle stroke="#6369FF" stroke-width="2" fill="#FFF" fill-rule="nonzero" cx="13.2819" cy="7.2224" r="1.469"/><path d="M18.6069 7.2224H28.4" stroke="#6369FF" stroke-width="2" fill="#FFF" fill-rule="nonzero"/><path fill="url(#a)" fill-rule="nonzero" d="M.3672.1836h16.9543v11.8129H.3672z" transform="translate(11.6293 12.8534)"/><path d="M24.4216 13.037V24.85M11.9966 16.8319h16.9543M11.9966 21.1164h16.9543" stroke="#FFF" stroke-width="2"/><path d="M28.9509 28.2776H20.749" stroke="#6369FF" stroke-width="2"/></g></svg>
