<svg width="41" height="41" xmlns="http://www.w3.org/2000/svg"><defs><linearGradient x1="50.0865%" y1="99.8692%" x2="50.0865%" y2=".1308%" id="a"><stop stop-color="#6369FF" stop-opacity=".3" offset="0%"/><stop stop-color="#6369FF" stop-opacity=".4" offset="2.8926%"/><stop stop-color="#6369FF" stop-opacity=".1" offset="100%"/></linearGradient></defs><g fill="none" fill-rule="evenodd"><g transform="translate(-.5 2.6)"><circle stroke="#120078" stroke-width="2" cx="21.0094" cy="18.1563" r="17.2917"/><circle fill="url(#a)" fill-rule="nonzero" cx="21.0094" cy="18.1563" r="11.2396"/><g stroke="#120078" stroke-width="2"><path d="M21.0094 12.5365V23.776M15.3896 18.1563h11.2396"/></g><g fill-rule="nonzero"><path d="M12.45 35.1885c-.3458 0-.6917-.0864-1.0375-.2593-.951-.5188-1.2969-1.7292-.6917-2.6802.3459-.6053 1.0375-1.0375 1.7292-1.0375.3458 0 .6917.0864 1.0375.2593.4323.2594.7781.6917.951 1.2104.173.5188.0865 1.0376-.1729 1.5563-.4323.5188-1.124.951-1.8156.951zm17.2917-.0864c-.6917 0-1.3834-.3458-1.7292-1.0375-.5188-.951-.2594-2.1615.7781-2.7667.2594-.1729.6052-.2594 1.0375-.2594.6917 0 1.3834.3459 1.7292 1.0375.5187.951.2594 2.1615-.6917 2.7667-.4323.173-.7781.2594-1.124.2594zM3.7177 20.2312c-1.124 0-1.9885-.8645-1.9885-1.9885 0-1.2104.8645-2.075 1.9885-2.075 1.124 0 1.9886.8646 1.9886 1.9886 0 .6052-.173 1.124-.6053 1.4697-.3458.4323-.778.6052-1.3833.6052zm34.5833-.0864c-1.124 0-1.9885-.8646-1.9885-1.9886 0-1.124.8646-1.9885 1.9885-1.9885 1.124 0 1.9886.8646 1.9886 1.9886 0 1.0374-.8646 1.9885-1.9886 1.9885zM12.3635 5.1875c-.6916 0-1.3833-.3458-1.7291-1.0375-.2594-.4323-.3459-.951-.173-1.4698.173-.5187.4324-.951.9511-1.2104.2594-.173.6052-.2594 1.0375-.2594.6917 0 1.3833.3458 1.7292 1.0375.5187.951.2593 2.1615-.6917 2.7667-.4323.0864-.7781.1729-1.124.1729zm17.2917 0c-.3458 0-.6917-.0865-.951-.2594-.5188-.2593-.7782-.6916-.951-1.2104-.173-.6052-.0865-1.124.1728-1.5562.3459-.6053 1.0375-1.0375 1.7292-1.0375.3458 0 .6917.0864 1.0375.2593.4323.3459.7781.7782.8646 1.297.173.5187.0864 1.0374-.173 1.5562-.3458.5187-1.0374.951-1.729.951z" fill="#FFF"/><path d="M29.6552 2.248c.173 0 .3458 0 .4323.0864.4323.2593.6052.8646.3458 1.2969-.1729.3458-.5187.4322-.778.4322-.173 0-.346-.0864-.4324-.0864-.4323-.2594-.6052-.8646-.3458-1.2969.1729-.2594.4323-.4323.7781-.4323zm-17.2917 0c.3459 0 .6052.1728.7782.4322.2593.4323.0864 1.0375-.3459 1.2969-.1729.0864-.3458.0864-.4323.0864-.3458 0-.6052-.1729-.778-.4323-.2595-.4322-.0865-1.0375.3458-1.2968.0864 0 .2593-.0865.4322-.0865zM38.301 17.2051c.5188 0 .951.4323.951.951 0 .5188-.4322.951-.951.951-.5187 0-.951-.4322-.951-.951 0-.5187.4323-.951.951-.951zm-34.5833 0c.5188 0 .951.4323.951.951 0 .5188-.4322.951-.951.951-.5187 0-.951-.4322-.951-.951.0864-.5187.4323-.951.951-.951zm26.024 14.9573c.3458 0 .6052.173.778.4323.2595.4323.0865 1.0375-.3457 1.2969-.173.0864-.3459.0864-.4323.0864-.3459 0-.6052-.1729-.7782-.4323-.2593-.4323-.0864-1.0375.3459-1.2968.0864 0 .2594-.0865.4323-.0865zM12.45 32.249c.173 0 .3458 0 .4323.0864.4323.2594.6052.8646.3458 1.2969-.1729.2594-.5187.4323-.7781.4323-.173 0-.3458 0-.4323-.0865-.4323-.2593-.6052-.7781-.3458-1.2968.0864-.2594.4323-.4323.7781-.4323zM29.6552.0865c-1.124 0-2.1615.6052-2.6802 1.5562-.4323.6917-.5188 1.4698-.3458 2.3344.1729.7781.6916 1.4698 1.4698 1.902.5187.2594 1.0375.4324 1.5562.4324 1.124 0 2.1615-.6052 2.6802-1.5563.4323-.6917.5188-1.5562.2594-2.3344-.173-.778-.6917-1.4698-1.4698-1.902-.3458-.2594-.951-.4323-1.4698-.4323zm-17.2917 0c-.5187 0-1.124.1729-1.5562.4323-.6917.4322-1.2104 1.0374-1.3833 1.902-.2594.7782-.173 1.5563.2593 2.3344.6052.951 1.5563 1.5563 2.6802 1.5563.5188 0 1.124-.173 1.5563-.4323 1.4698-.8646 1.9885-2.7667 1.124-4.2365C14.525.6917 13.4874.0865 12.3635.0865zM38.301 15.0438c-1.7291 0-3.1125 1.3833-3.1125 3.1125 0 1.7291 1.3834 3.1124 3.1125 3.1124 1.7292 0 3.1125-1.3833 3.1125-3.1124 0-1.7292-1.3833-3.1126-3.1125-3.1126zm-34.5833 0c-1.7292 0-3.1125 1.3833-3.1125 3.1125v.0864c0 1.6427 1.3833 3.026 3.1125 3.026.8646 0 1.6427-.3458 2.1615-.951.6052-.6052.8646-1.3833.8646-2.1614.0864-1.7292-1.297-3.1126-3.026-3.1126zm26.024 14.9572c-.5188 0-1.124.173-1.5563.4323-1.4698.8646-1.9885 2.6802-1.124 4.2365.5188.951 1.5563 1.5562 2.6803 1.5562.5187 0 1.124-.1729 1.5562-.4322 1.4698-.8646 1.9886-2.7667 1.124-4.2365-.6052-.951-1.6427-1.5563-2.6802-1.5563zm-17.2917.0865c-1.124 0-2.1615.6052-2.6802 1.5563-.8646 1.4697-.3458 3.3718 1.124 4.2364.4322.2594 1.0374.4323 1.5562.4323 1.124 0 2.1615-.6052 2.6802-1.5562.4323-.6917.5188-1.5563.2594-2.3344-.173-.7782-.6917-1.4698-1.4698-1.9021-.4323-.3458-.951-.4323-1.4698-.4323z" fill="#6369FF"/></g></g><g fill="#FFF" fill-rule="nonzero"><path d="M11.95 36.8375c-.173 0-.3458-.0865-.5187-.173-.5188-.2593-.6917-.951-.3459-1.3832.173-.3459.5188-.5188.8646-.5188.173 0 .3458.0865.5188.173.2593.1728.4322.3458.5187.6051.0865.2594 0 .5188-.0865.7782-.2593.2593-.6052.5187-.951.5187zm17.2917-.0865c-.3459 0-.6917-.1729-.8646-.5187-.2594-.5188-.0865-1.124.3458-1.3833.173-.0865.3459-.173.5188-.173.3458 0 .6916.173.8645.5188.2594.5187.0865 1.124-.3458 1.3833-.1729.0865-.3458.173-.5187.173zM3.2177 21.8802c-.5187 0-1.0375-.4323-1.0375-1.0375 0-.6052.4323-1.124 1.0375-1.124.6052 0 1.0375.4323 1.0375 1.0376 0 .3458-.0865.6052-.2594.778-.2593.173-.5187.346-.778.346zm34.5833-.0864c-.6052 0-1.0375-.4323-1.0375-1.0375 0-.6053.4323-1.0375 1.0375-1.0375.6052 0 1.0375.4322 1.0375 1.0375 0 .6052-.4323 1.0375-1.0375 1.0375zM11.8635 6.8365c-.3458 0-.6916-.173-.8645-.5188-.173-.2594-.173-.5187-.0865-.7781.0865-.2594.2594-.5188.5188-.6052.1729-.0865.3458-.173.5187-.173.3458 0 .6917.173.8646.5188.2594.5188.0864 1.124-.3459 1.3833-.2593.0865-.4322.173-.6052.173zm17.2917 0c-.173 0-.3458-.0865-.5187-.173-.2594-.1729-.4323-.3458-.5188-.6052-.0864-.2593 0-.5187.0865-.778.1729-.346.5187-.5188.8646-.5188.1729 0 .3458.0864.5187.1729.2594.1729.4323.3458.5188.6052.0864.2594 0 .5187-.0865.7781-.173.2594-.5188.5188-.8646.5188z"/><path d="M29.1552 4.848c.173 0 .3458 0 .4323.0864.4323.2594.6052.8646.3458 1.2969-.1729.3458-.5187.4322-.778.4322-.173 0-.346-.0864-.4324-.0864-.4323-.2594-.6052-.8646-.3458-1.2969.1729-.2594.4323-.4323.7781-.4323zm-17.2917 0c.3459 0 .6052.1728.7782.4322.2593.4323.0864 1.0375-.3459 1.2969-.1729.0864-.3458.0864-.4323.0864-.3458 0-.6052-.1729-.778-.4322-.2595-.4323-.0865-1.0375.3458-1.297.0864 0 .2593-.0864.4322-.0864zM37.801 19.8051c.5188 0 .951.4323.951.951 0 .5188-.4322.951-.951.951-.5187 0-.951-.4322-.951-.951 0-.5187.4323-.951.951-.951zm-34.5833 0c.5188 0 .951.4323.951.951 0 .5188-.4322.951-.951.951-.5187 0-.951-.4322-.951-.951.0864-.5187.4323-.951.951-.951zm26.024 14.9573c.3458 0 .6052.173.778.4323.2595.4323.0865 1.0375-.3457 1.2969-.173.0864-.3459.0864-.4323.0864-.3459 0-.6052-.1729-.7782-.4323-.2593-.4323-.0864-1.0375.3459-1.2968.0864 0 .2594-.0865.4323-.0865zM11.95 34.849c.173 0 .3458 0 .4323.0864.4323.2594.6052.8646.3458 1.2969-.1729.2594-.5187.4323-.7781.4323-.173 0-.3458 0-.4323-.0865-.4323-.2593-.6052-.7781-.3458-1.2968.0864-.2594.4323-.4323.7781-.4323zM29.1552 4.5885c-.4323 0-.7781.2594-.951.6053-.173.2593-.2594.6052-.173.8645.0865.2594.2594.5188.5188.6917.173.0865.4323.173.6052.173.4323 0 .7781-.2595.951-.6053.173-.2594.173-.6052.0865-.8646 0-.2593-.173-.5187-.4323-.6916-.1729-.0865-.4323-.173-.6052-.173zm-17.2917.0865c-.1729 0-.4322.0865-.6052.173-.5187.3458-.6916 1.0374-.4323 1.5562.2594.3458.6052.5187 1.0375.5187.173 0 .4323-.0864.6052-.1729.5188-.3458.6917-1.0375.4323-1.5562-.2593-.3459-.6052-.5188-1.0375-.5188zM37.801 19.5458c-.6052 0-1.124.5188-1.124 1.124 0 .6052.5188 1.124 1.124 1.124.6052 0 1.124-.5188 1.124-1.124 0-.6052-.4323-1.124-1.124-1.124zm-34.5833.0865c-.6052 0-1.124.5187-1.124 1.124v.0864c0 .6052.5188 1.124 1.124 1.124.3458 0 .6052-.0865.7781-.3459.173-.2593.3459-.5187.3459-.778l-.173-.0865h.173c0-.6053-.4323-1.124-1.124-1.124zm26.024 14.9573c-.173 0-.4323.0864-.6052.1729-.5188.3458-.6917 1.0375-.4323 1.5563.1729.3458.6052.6052.951.6052.173 0 .4323-.0865.6052-.173.5188-.3458.6917-1.0375.4323-1.5562-.173-.4323-.6052-.6052-.951-.6052zm-17.2917 0c-.4323 0-.7781.2594-.951.6052-.3459.5187-.0865 1.2104.4322 1.5562.173.0865.3459.173.6053.173.4322 0 .778-.2594.951-.6052.173-.2594.173-.6053.0865-.8646-.0865-.2594-.2594-.5188-.5188-.6917-.2594-.0865-.4323-.173-.6052-.173z"/></g></g></svg>
