<svg width="133" height="38" xmlns="http://www.w3.org/2000/svg"><g fill="#FFFFFF" fill-rule="nonzero"><path d="M63.4 12l-2.9.2c-.1-1.8-1.4-2.9-3.4-2.9-2.2 0-3.3 1.2-3.3 2.7 0 1.8 1.4 2.2 4 2.8 3.8.9 6.1 2 6.1 5.2 0 3.7-2.9 5.3-6.5 5.3-3.9 0-6.9-1.9-7-5.4l2.9-.2c.1 1.9 1.8 3.1 4.1 3.1 2.1 0 3.6-.8 3.6-2.6s-1.6-2.3-4.3-2.9c-3.2-.8-5.9-1.7-5.9-5.1 0-2.8 2-5.3 6.2-5.3 3.7-.1 6.3 1.8 6.4 5.1zM79.4 18.9c0 3.9-2.5 6.4-5.9 6.4-1.8 0-3.2-.7-3.9-1.7v7.6h-2.7V12.7h2.5v1.7c.7-1.1 2.1-1.9 4.1-1.9 3.4 0 5.9 2.4 5.9 6.4zm-9.8-.4v.6c0 2.4 1.5 3.7 3.5 3.7 2.1 0 3.6-1.5 3.6-4.1 0-2.6-1.5-4.1-3.6-4.1-2 .2-3.5 1.5-3.5 3.9zM91.8 17.3V25H89v-1.1c-.9.8-2 1.3-3.3 1.3-2.4 0-4.1-1.3-4.1-3.6 0-2.6 2-3.6 4.5-3.7l2.9-.2v-.4c0-1.6-.7-2.6-2.2-2.6-1.5 0-2.2 1-2.2 2.1l-2.7-.1c0-2.2 1.8-4.3 4.9-4.3 3.2.1 5 1.8 5 4.9zM86.5 20c-1.3.1-2.2.5-2.2 1.6 0 1 .8 1.4 1.8 1.4 1.7 0 2.9-.8 2.9-2.7v-.4l-2.5.1zM106.1 17.1l-2.6.2c-.2-1.6-1.4-2.6-3-2.6-2 0-3.4 1.5-3.4 4.1 0 2.6 1.5 4.1 3.4 4.1 1.7 0 2.8-.9 3-2.4l2.6.2c-.5 2.8-2.7 4.5-5.7 4.5-3.5 0-6.2-2.4-6.2-6.4 0-4.1 2.6-6.4 6.2-6.4 3 .1 5.3 1.8 5.7 4.7zM111.1 19.9c.1 1.9 1.4 3 3.3 3 1.6 0 2.6-.6 2.9-1.8l2.7.1c-.5 2.2-2.7 3.9-5.6 3.9-3.6 0-6.2-2.4-6.2-6.4s2.6-6.4 6.1-6.4c3.5 0 5.8 2.3 5.8 6.1v1.3h-9v.2zm0-2.2h6.3c-.1-1.8-1.1-3-3.1-3-1.7.1-3 1.1-3.2 3zM132 16.4l-2.7.1c-.1-1-.7-1.8-2.1-1.8-1.3 0-1.9.5-1.9 1.4 0 1.1 1.1 1.2 2.7 1.5 2.5.6 4.2 1.4 4.2 3.6 0 2.5-1.8 3.9-4.8 3.9s-4.8-1.5-5-3.9l2.7-.2c.1 1.1.9 1.8 2.4 1.8 1.2 0 2.1-.5 2.1-1.4 0-1-.6-1.2-2.7-1.7-2.5-.6-4.3-1.1-4.3-3.6 0-2.2 1.7-3.7 4.7-3.7 2.9.1 4.4 1.8 4.7 4z"/><g><path d="M6.6 7.7c.4 0 .7-.1 1-.3.3-.3.5-.6.5-1s-.1-.7-.3-1c-.3-.4-.7-.5-1-.6h-.1c-.7 0-1.4.6-1.4 1.3 0 .4.1.7.3 1 .2.4.6.6 1 .6zM2.7 13.4c.8 0 1.5-.5 1.5-1.3 0-.4-.1-.7-.3-1-.2-.3-.6-.5-1-.5h-.1c-.7 0-1.4.6-1.4 1.3 0 .4.1.7.3 1 .3.3.6.5 1 .5zM2.9 18.9c0-.4-.1-.7-.3-1-.3-.3-.6-.5-1-.5h-.1c-.3 0-.7.1-.9.4-.4.2-.6.5-.6.9s.1.7.3 1c.2.3.6.5 1 .5.8 0 1.5-.5 1.6-1.3zM2.9 24.2c-.1 0-.1 0 0 0-.4 0-.8.1-1 .3-.3.3-.5.6-.5 1s.1.7.3 1c.3.3.6.5 1 .5s.7-.1 1-.3c.3-.3.5-.6.5-1 .1-.8-.5-1.5-1.3-1.5zM6.8 30c-.8 0-1.5.6-1.5 1.3 0 .4.1.7.3 1 .3.3.6.5 1 .5s.7-.1 1-.3c.3-.3.5-.6.5-1s-.1-.7-.3-1c-.2-.3-.6-.5-1-.5zM12.6 33.7s-.1 0 0 0c-.4 0-.8.1-1 .3-.3.3-.5.6-.5 1s.1.7.3 1c.3.3.6.5 1 .5s.7-.1 1-.3c.3-.3.5-.6.5-1s-.1-.7-.3-1c-.3-.3-.6-.4-1-.5z"/><circle cx="25.4" cy="27.3" r="1.4"/><circle cx="29.2" cy="22" r="1.4"/><circle cx="29.3" cy="15.7" r="1.4"/><circle cx="25.4" cy="10.2" r="1.4"/><path d="M12.4 3.8c.8 0 1.5-.5 1.5-1.3S13.4 1 12.6 1h-.1c-.3 0-.7.1-.9.4-.3.3-.5.6-.5 1s.1.7.3 1c.3.2.6.4 1 .4zM18.9 30.5v-2.4c-5-.2-9-4.3-9-9.3 0-5 4-9.1 9-9.3V7c-6.4.2-11.5 5.4-11.5 11.7 0 6.4 5.1 11.6 11.5 11.8zM19.5 0v2.4c8.9.2 16.1 7.5 16.1 16.4 0 8.9-7.2 16.3-16.1 16.4v2.4c10.2 0 18.5-8.4 18.5-18.7C38 8.6 29.7.2 19.5 0z"/></g></g></svg>