<svg width="41" height="41" xmlns="http://www.w3.org/2000/svg"><defs><linearGradient x1="14.4692%" y1="85.1086%" x2="85.5802%" y2="13.9976%" id="a"><stop stop-color="#6369FF" stop-opacity=".4" offset="0%"/><stop stop-color="#6369FF" stop-opacity="0" offset="100%"/></linearGradient><linearGradient x1="85.168%" y1="14.6278%" x2="14.178%" y2="85.6178%" id="b"><stop stop-color="#6369FF" stop-opacity=".3" offset="0%"/><stop stop-color="#6369FF" stop-opacity="0" offset="100%"/></linearGradient></defs><g fill="none" fill-rule="evenodd"><circle fill="url(#a)" fill-rule="nonzero" cx="9.635" cy="30.8525" r="4.2025"/><circle fill="url(#b)" fill-rule="nonzero" cx="29.0075" cy="11.685" r="11.685"/><circle stroke="#6369FF" stroke-width="2" transform="rotate(-45 9.6487 30.8426)" cx="9.6487" cy="30.8426" r="4.2025"/><circle fill="#120078" fill-rule="nonzero" transform="rotate(-45 28.6364 11.8908)" cx="28.6364" cy="11.8908" r="1.64"/><path d="M19.1675 24.0875l-.205 4.92c-.1025 2.87-1.3325 5.6375-3.3825 7.6875l-.205.1025c-3.28 3.28-8.5075 3.28-11.685 0-3.28-3.28-3.28-8.5075 0-11.685l.205-.205c2.05-2.05 4.8175-3.28 7.6875-3.3825L27.06 20.91c2.87-.1025 5.6375-1.3325 7.6875-3.3825 3.28-3.28 3.28-8.5075 0-11.685-3.28-3.28-8.5075-3.28-11.685 0-2.05 2.05-3.28 4.8175-3.3825 7.6875l-.3075 4.92" stroke="#6369FF" stroke-width="2"/><path d="M3.69 36.7975c-3.28-3.28-3.28-8.5075 0-11.685l.205-.205c2.05-2.05 4.8175-3.28 7.6875-3.3825L27.06 20.91c2.87-.1025 5.6375-1.3325 7.6875-3.3825 3.28-3.28 3.28-8.5075 0-11.685" stroke="#120078" stroke-width="2"/><path d="M25.1125 26.035l3.3825-.1025c3.3825-.1025 6.6625-1.5375 9.1225-3.9975M13.12 17.015l-3.3825.1025C6.355 17.22 3.075 18.655.615 21.115" stroke="#6369FF" stroke-width="2"/><circle stroke="#6369FF" stroke-width="2" fill="#FFF" fill-rule="nonzero" transform="rotate(-45 21.1824 7.6696)" cx="21.1824" cy="7.6696" r="2.05"/><circle stroke="#6369FF" stroke-width="2" fill="#FFF" fill-rule="nonzero" transform="rotate(-45 18.6718 31.5446)" cx="18.6718" cy="31.5446" r="1.5375"/></g></svg>
