<svg id="Layer_1" data-name="Layer 1" xmlns="http://www.w3.org/2000/svg" xmlns:xlink="http://www.w3.org/1999/xlink" viewBox="0 0 1770 900"><defs><style>.cls-1{fill:none}.cls-16{fill:#fff}.cls-29{fill:#6380ff}.cls-42{fill:#00d7d2}.cls-56{opacity:.4}.cls-55,.cls-56{fill:#4069ff}</style><linearGradient id="linear-gradient" x1="-2295.34" y1="-1884.13" x2="-2575.44" y2="-1884.13" gradientTransform="matrix(.7 0 0 -1.4 2898.74 -1939.8)" gradientUnits="userSpaceOnUse"><stop offset="0" stop-color="#6369ff" stop-opacity=".1"/><stop offset=".01" stop-color="#6369ff" stop-opacity=".1"/><stop offset="1" stop-color="#6369ff" stop-opacity="0"/></linearGradient><linearGradient id="linear-gradient-2" x1="91.65" y1="-1884.13" x2="-48.29" y2="-1884.13" gradientTransform="matrix(1.47 0 0 -1.4 1163.21 -1936.24)" xlink:href="#linear-gradient"/><linearGradient id="New_Gradient_Swatch_copy_4" x1="-3651.71" y1="-2129.23" x2="-2330.43" y2="-2129.23" gradientTransform="translate(3746.95 2673.73)" gradientUnits="userSpaceOnUse"><stop offset="0" stop-color="#12004b"/><stop offset="1" stop-color="#4745c0"/></linearGradient><linearGradient id="New_Gradient_Swatch_copy_4-2" x1="-3436.58" y1="-2098.08" x2="-2022" y2="-2098.08" gradientTransform="translate(3768.98 2664.6)" xlink:href="#New_Gradient_Swatch_copy_4"/><clipPath id="clip-path"><ellipse class="cls-1" cx="1087" cy="585.04" rx="212.01" ry="55.99" transform="rotate(-45 1087.001 585.04)"/></clipPath><linearGradient id="New_Gradient_Swatch_copy_4-3" x1="-3104.43" y1="-2071.9" x2="-2014.34" y2="-2071.9" gradientTransform="translate(3787.49 2656.94)" xlink:href="#New_Gradient_Swatch_copy_4"/><linearGradient id="New_Gradient_Swatch_copy_4-4" x1="-2872.6" y1="-2042.21" x2="-2000.76" y2="-2042.21" gradientTransform="translate(3808.48 2648.24)" xlink:href="#New_Gradient_Swatch_copy_4"/><linearGradient id="linear-gradient-3" x1="672.92" y1="169.65" x2="1016.46" y2="513.19" gradientUnits="userSpaceOnUse"><stop offset="0" stop-color="#6369ff" stop-opacity=".07"/><stop offset="1" stop-color="#6369ff" stop-opacity="0"/></linearGradient><linearGradient id="linear-gradient-4" x1="692.94" y1="140.36" x2="959.91" y2="407.33" xlink:href="#linear-gradient-3"/><clipPath id="clip-path-2"><path class="cls-1" d="M884.27 711l-75.56-76.4a3.8 3.8 0 0 0-3.66-1l-49.46 12.77a3.8 3.8 0 0 0-2.71 2.65L742 687.44a3.8 3.8 0 0 0 1 3.7l76.34 76.79 55.25-15z"/></clipPath><linearGradient id="linear-gradient-5" x1="-3307.47" y1="-2517.71" x2="-3276.98" y2="-2404.11" gradientTransform="matrix(.71 -.71 .71 .71 4908.89 106.7)" gradientUnits="userSpaceOnUse"><stop offset="0" stop-color="#6380ff" stop-opacity=".5"/><stop offset=".24" stop-color="#6380ff" stop-opacity=".35"/><stop offset=".69" stop-color="#6380ff" stop-opacity=".1"/><stop offset=".9" stop-color="#6380ff" stop-opacity="0"/></linearGradient><linearGradient id="linear-gradient-6" x1="-3320.27" y1="-2519.14" x2="-3348.05" y2="-2415.32" gradientTransform="matrix(.71 -.71 .71 .71 4908.89 106.7)" gradientUnits="userSpaceOnUse"><stop offset="0" stop-color="#6380ff" stop-opacity=".8"/><stop offset=".04" stop-color="#6380ff" stop-opacity=".76"/><stop offset=".47" stop-color="#6380ff" stop-opacity=".36"/><stop offset=".77" stop-color="#6380ff" stop-opacity=".1"/><stop offset=".91" stop-color="#6380ff" stop-opacity="0"/></linearGradient><linearGradient id="linear-gradient-7" x1="739.83" y1="677.57" x2="792.12" y2="661.95" gradientUnits="userSpaceOnUse"><stop offset="0" stop-color="#3d42df"/><stop offset="1" stop-color="#5b7be9"/></linearGradient><linearGradient id="linear-gradient-8" x1="799.58" y1="678.53" x2="809.93" y2="637.13" gradientUnits="userSpaceOnUse"><stop offset="0" stop-color="#acbeff"/><stop offset=".52" stop-color="#c3d7ff"/><stop offset="1" stop-color="#dbf1ff"/></linearGradient><linearGradient id="linear-gradient-9" x1="778.07" y1="679" x2="774.13" y2="648.21" gradientUnits="userSpaceOnUse"><stop offset="0" stop-color="#6380ff" stop-opacity=".5"/><stop offset=".27" stop-color="#6380ff" stop-opacity=".35"/><stop offset=".77" stop-color="#6380ff" stop-opacity=".1"/><stop offset="1" stop-color="#6380ff" stop-opacity="0"/></linearGradient><linearGradient id="linear-gradient-10" x1="775.58" y1="683.76" x2="762" y2="652.71" gradientUnits="userSpaceOnUse"><stop offset="0" stop-color="#4069ff"/><stop offset=".43" stop-color="#5981ff"/><stop offset="1" stop-color="#7fa5ff"/></linearGradient><clipPath id="clip-path-3"><path class="cls-1" d="M1237.06 434.88c-3-3-7.29-4.69-12.58-5.08l-307.9-307.9-290.47 290.47 306 306c-.23 7.07 1.42 12.64 5.15 16.37 21.87 21.87 106.71-27.53 189.51-110.32s132.16-167.68 110.29-189.54z"/></clipPath><clipPath id="clip-path-4"><path class="cls-1" d="M1011.3 521.26l-84.71-84.83a1.46 1.46 0 0 0-1.41-.38l-9 2.41a1.46 1.46 0 0 0-1 1l-2.41 9a1.46 1.46 0 0 0 .38 1.41l84.71 84.83a1.46 1.46 0 0 0 1.41.38l9-2.41a1.46 1.46 0 0 0 1-1l2.41-9a1.46 1.46 0 0 0-.38-1.41z"/></clipPath><linearGradient id="linear-gradient-11" x1="-3059.7" y1="-2587.83" x2="-3059.7" y2="-2456.05" xlink:href="#linear-gradient-5"/><linearGradient id="linear-gradient-12" x1="-3064.36" y1="-2580.02" x2="-3064.36" y2="-2466.47" xlink:href="#linear-gradient-6"/><linearGradient id="linear-gradient-13" x1="916.16" y1="452.81" x2="929.7" y2="439.46" xlink:href="#linear-gradient-8"/><clipPath id="clip-path-5"><path class="cls-1" d="M1182.37 529.45l-263.66-264.6A7 7 0 0 0 912 263l-51.09 13.19A8.34 8.34 0 0 0 855 282l-11 38.83a7 7 0 0 0 1.78 6.85l264.46 265a8.34 8.34 0 0 0 8.08 2.16l50.13-13.54a8.34 8.34 0 0 0 5.88-5.89l10.17-37.88a8.34 8.34 0 0 0-2.13-8.08z"/></clipPath><linearGradient id="linear-gradient-14" x1="-2982.55" y1="-2743.68" x2="-2982.55" y2="-2308.3" gradientTransform="matrix(.71 -.71 .71 .71 4908.89 106.7)" xlink:href="#linear-gradient-9"/><linearGradient id="linear-gradient-15" x1="-3003.88" y1="-2712.1" x2="-3003.88" y2="-2342.21" gradientTransform="matrix(.71 -.71 .71 .71 4908.89 106.7)" xlink:href="#linear-gradient-9"/><linearGradient id="linear-gradient-16" x1="857.11" y1="338.29" x2="925.31" y2="271.06" gradientUnits="userSpaceOnUse"><stop offset="0" stop-color="#acbeff"/><stop offset=".43" stop-color="#c5d2ff"/><stop offset="1" stop-color="#ebf1ff"/></linearGradient><clipPath id="clip-path-6"><path class="cls-1" d="M1133.07 664.09l-126.76-127.72a4.33 4.33 0 0 0-4.17-1.16l-56.35 14.55a4.33 4.33 0 0 0-3.08 3l-12.36 43.8a4.33 4.33 0 0 0 1.09 4.22L1059.09 729l61-16.47z"/></clipPath><linearGradient id="linear-gradient-17" x1="-3110.88" y1="-2444.45" x2="-3062.19" y2="-2263.01" xlink:href="#linear-gradient-5"/><linearGradient id="linear-gradient-18" x1="-3111.55" y1="-2446.93" x2="-3156.23" y2="-2279.91" xlink:href="#linear-gradient-6"/><linearGradient id="linear-gradient-19" x1="928.06" y1="585.66" x2="987.83" y2="567.8" gradientUnits="userSpaceOnUse"><stop offset="0" stop-color="#0085d2"/><stop offset=".46" stop-color="#009ed2"/><stop offset="1" stop-color="#00c0d2"/></linearGradient><linearGradient id="linear-gradient-20" x1="996.36" y1="586.76" x2="1008.19" y2="539.43" xlink:href="#linear-gradient-8"/><linearGradient id="linear-gradient-21" x1="971.48" y1="587.44" x2="966.93" y2="552" xlink:href="#linear-gradient-9"/><linearGradient id="linear-gradient-22" x1="968.49" y1="592.21" x2="953.08" y2="557" gradientUnits="userSpaceOnUse"><stop offset="0" stop-color="#00d7d2"/><stop offset=".27" stop-color="#00d7d2" stop-opacity=".88"/><stop offset=".84" stop-color="#00d7d2" stop-opacity=".59"/><stop offset="1" stop-color="#00d7d2" stop-opacity=".5"/></linearGradient><clipPath id="clip-path-7"><path class="cls-1" d="M913.44 260.52l-24.75-25.7A7 7 0 0 0 882 233l-51.09 13.19a8.35 8.35 0 0 0-5.95 5.82l-11 38.82a7 7 0 0 0 1.78 6.85l25.56 26.07a8.35 8.35 0 0 0 8.09 2.16l50.13-13.54a8.35 8.35 0 0 0 5.89-5.9l10.17-37.87a8.35 8.35 0 0 0-2.14-8.08z"/></clipPath><linearGradient id="linear-gradient-23" x1="-2961.74" y1="-2740.29" x2="-2949.68" y2="-2695.34" gradientTransform="matrix(.71 -.71 .71 .71 4908.89 106.7)" gradientUnits="userSpaceOnUse"><stop offset="0" stop-color="#6380ff" stop-opacity=".4"/><stop offset=".09" stop-color="#6380ff" stop-opacity=".35"/><stop offset=".62" stop-color="#6380ff" stop-opacity=".1"/><stop offset=".87" stop-color="#6380ff" stop-opacity="0"/></linearGradient><linearGradient id="linear-gradient-24" x1="-2997.32" y1="-2745.18" x2="-3009.1" y2="-2701.13" gradientTransform="matrix(.71 -.71 .71 .71 4908.89 106.7)" gradientUnits="userSpaceOnUse"><stop offset="0" stop-color="#6380ff" stop-opacity=".8"/><stop offset=".04" stop-color="#6380ff" stop-opacity=".76"/><stop offset=".52" stop-color="#6380ff" stop-opacity=".36"/><stop offset=".85" stop-color="#6380ff" stop-opacity=".1"/><stop offset="1" stop-color="#6380ff" stop-opacity="0"/></linearGradient><linearGradient id="linear-gradient-25" x1="826.75" y1="307.93" x2="894.95" y2="240.7" gradientUnits="userSpaceOnUse"><stop offset="0" stop-color="#d3ebf7"/><stop offset=".11" stop-color="#d6edf8"/><stop offset="1" stop-color="#effaff"/></linearGradient><clipPath id="clip-path-8"><path class="cls-1" d="M1165.93 593.27l-73.47-73.66a1.46 1.46 0 0 0-1.41-.38l-15.27 4.08a1.46 1.46 0 0 0-1 1l-4.1 15.27a1.46 1.46 0 0 0 .32 1.42l73.47 73.66a1.46 1.46 0 0 0 1.41.38l15.27-4.08a1.46 1.46 0 0 0 1-1l4.1-15.27a1.46 1.46 0 0 0-.32-1.42z"/></clipPath><linearGradient id="linear-gradient-26" x1="-3006.8" y1="-2415" x2="-3006.8" y2="-2292.53" xlink:href="#linear-gradient-5"/><linearGradient id="linear-gradient-27" x1="-3014.21" y1="-2404.18" x2="-3014.21" y2="-2301.89" xlink:href="#linear-gradient-6"/><linearGradient id="linear-gradient-28" x1="1075.42" y1="545.19" x2="1096.95" y2="523.98" xlink:href="#linear-gradient-8"/><linearGradient id="linear-gradient-29" x1="-3133.91" y1="-2651.05" x2="-3085.33" y2="-2470.06" xlink:href="#linear-gradient-5"/><linearGradient id="linear-gradient-30" x1="-3142.52" y1="-2661.51" x2="-3188.4" y2="-2489.97" xlink:href="#linear-gradient-6"/><linearGradient id="linear-gradient-31" x1="766.98" y1="492.2" x2="849.05" y2="411.3" gradientUnits="userSpaceOnUse"><stop offset="0" stop-color="#5161ef"/><stop offset=".54" stop-color="#667af7"/><stop offset="1" stop-color="#7b92ff"/></linearGradient><linearGradient id="linear-gradient-32" x1="815.62" y1="462.94" x2="753.83" y2="392.91" gradientUnits="userSpaceOnUse"><stop offset="0" stop-color="#333dc3"/><stop offset=".17" stop-color="#404bca"/><stop offset=".5" stop-color="#636fdd"/><stop offset=".94" stop-color="#9aaafb"/><stop offset="1" stop-color="#a2b2ff"/></linearGradient><linearGradient id="linear-gradient-33" x1="-2917.22" y1="-2548.54" x2="-2861.87" y2="-2342.33" xlink:href="#linear-gradient-5"/><linearGradient id="linear-gradient-34" x1="-2912.05" y1="-2544.78" x2="-2961.89" y2="-2358.49" xlink:href="#linear-gradient-6"/><linearGradient id="linear-gradient-35" x1="1015.22" y1="400.78" x2="1085.55" y2="331.45" xlink:href="#linear-gradient-8"/><linearGradient id="linear-gradient-36" x1="-3200.86" y1="-2577.32" x2="-3242.96" y2="-2419.95" xlink:href="#linear-gradient-6"/><linearGradient id="linear-gradient-37" x1="793.4" y1="575.58" x2="851.38" y2="518.42" xlink:href="#linear-gradient-8"/><linearGradient id="linear-gradient-38" x1="-3206.4" y1="-2581.38" x2="-3159.31" y2="-2405.94" xlink:href="#linear-gradient-5"/><clipPath id="clip-path-9"><path class="cls-1" d="M945.57 709L882 645.24a1.46 1.46 0 0 0-1.41-.38L867 648.49a1.46 1.46 0 0 0-1 1l-3.64 13.57a1.46 1.46 0 0 0 .38 1.41l63.61 63.77a1.46 1.46 0 0 0 1.41.38l13.51-3.62a1.46 1.46 0 0 0 1-1l3.64-13.57a1.46 1.46 0 0 0-.34-1.43z"/></clipPath><linearGradient id="linear-gradient-39" x1="-3242.98" y1="-2474.03" x2="-3242.98" y2="-2367.18" xlink:href="#linear-gradient-5"/><linearGradient id="linear-gradient-40" x1="-3249.64" y1="-2464.35" x2="-3249.64" y2="-2375.33" xlink:href="#linear-gradient-6"/><linearGradient id="linear-gradient-41" x1="866.97" y1="668.58" x2="886.34" y2="649.49" xlink:href="#linear-gradient-8"/><clipPath id="clip-path-10"><path class="cls-1" d="M1250.19 394.11l-46.13-46.22a1.46 1.46 0 0 0-1.41-.38l-6.77 1.81a1.46 1.46 0 0 0-1 1l-1.82 6.77a1.46 1.46 0 0 0 .38 1.41l46.13 46.22a1.46 1.46 0 0 0 1.41.38l6.77-1.81a1.46 1.46 0 0 0 1-1l1.82-6.77a1.46 1.46 0 0 0-.38-1.41z"/></clipPath><linearGradient id="linear-gradient-42" x1="-2798.84" y1="-2453.19" x2="-2798.84" y2="-2377.96" xlink:href="#linear-gradient-5"/><linearGradient id="linear-gradient-43" x1="-2802.52" y1="-2447.55" x2="-2802.52" y2="-2383.81" xlink:href="#linear-gradient-6"/><linearGradient id="linear-gradient-44" x1="1195.71" y1="360.73" x2="1206.42" y2="350.18" xlink:href="#linear-gradient-8"/><clipPath id="clip-path-11"><path class="cls-1" d="M1221.73 438l-82.09-82.35a1.46 1.46 0 0 0-1.41-.38l-22.59 6a1.46 1.46 0 0 0-1 1l-6.06 22.58a1.46 1.46 0 0 0 .38 1.41l82.04 82.45a1.46 1.46 0 0 0 1.41.38l22.59-6a1.46 1.46 0 0 0 1-1l6.06-22.58a1.46 1.46 0 0 0-.33-1.51z"/></clipPath><linearGradient id="linear-gradient-45" x1="-2864.13" y1="-2501.41" x2="-2864.13" y2="-2359.23" xlink:href="#linear-gradient-5"/><linearGradient id="linear-gradient-46" x1="-2874.75" y1="-2486.5" x2="-2874.75" y2="-2369.89" xlink:href="#linear-gradient-6"/><linearGradient id="linear-gradient-47" x1="1115.21" y1="392.3" x2="1146.05" y2="361.9" xlink:href="#linear-gradient-8"/></defs><path transform="rotate(-135 1194.93 693.364)" fill="url(#linear-gradient)" d="M1094.23 501.23h201.41V885.5h-201.41z"/><path transform="rotate(-135 1198.496 696.925)" fill="url(#linear-gradient-2)" d="M1092.75 600.93h211.49v191.99h-211.49z"/><ellipse cx="1046.46" cy="544.5" rx="371.8" ry="133.31" transform="rotate(-45 1046.46 544.502)" fill="url(#New_Gradient_Swatch_copy_4)"/><ellipse cx="1068.49" cy="566.52" rx="275.12" ry="91.11" transform="rotate(-45 1068.48 566.52)" fill="url(#New_Gradient_Swatch_copy_4-2)"/><g clip-path="url(#clip-path)"><ellipse cx="1087" cy="585.04" rx="212.01" ry="55.99" transform="rotate(-45 1087.001 585.04)" fill="url(#New_Gradient_Swatch_copy_4-3)"/><ellipse cx="1107.99" cy="606.03" rx="169.25" ry="34.63" transform="rotate(-45 1107.993 606.024)" fill="url(#New_Gradient_Swatch_copy_4-4)"/></g><path fill="url(#linear-gradient-3)" d="M1262.49 264.43L767.7 759.22 0-8.48 989.06-9l273.43 273.43z"/><path fill="url(#linear-gradient-4)" d="M1149.36 215.75L768.33 596.79 171.74.2 938.8 5.18l210.56 210.57z"/><g clip-path="url(#clip-path-2)"><path fill="url(#linear-gradient-5)" d="M884.27 711l-77.1-77.97-11.62 43.61 79.03 76.33 9.69-41.97z"/><path d="M792.64 676.31l-50.13 14 76.82 77.6 55.25-15-79.18-76.27c-1.24-1.24-1.07-.77-2.76-.33z" fill="url(#linear-gradient-6)"/></g><path d="M801 683.07L751 697a2.7 2.7 0 0 1-2.67-.72l-5.8-6 65.14-56.79 5.05 5.07a2.7 2.7 0 0 1 .7 2.6l-10.61 40a2.7 2.7 0 0 1-1.81 1.91z" fill="url(#linear-gradient-7)"/><path d="M800.54 681.19l-5-4.55 12.21-43.12 5 5.07a2.7 2.7 0 0 1 .7 2.61l-10.53 39.29a1.46 1.46 0 0 1-2.38.7z" fill="url(#linear-gradient-8)"/><path class="cls-16" d="M806 633.29l-26.77 7.61c-1.5.43-2.49-.24-2.11-1.53s-.55-2-2.08-1.61l-16.51 4.7a5.31 5.31 0 0 0-3.42 3.14l-.66 2.35-11 39.16a3.18 3.18 0 0 0 3.93 3.92l48.85-13.89 11.89-42.27c.37-1.32-.56-2.02-2.12-1.58z"/><path d="M806 633.29l-26.77 7.61c-1.5.43-2.49-.24-2.11-1.53s-.55-2-2.08-1.61l-16.51 4.7a5.31 5.31 0 0 0-3.42 3.14l-.66 2.35-11 39.16c-.67 2.39 1.77 2.24 4.16 1.56l48.62-11.53 11.89-42.27c.37-1.32-.56-2.02-2.12-1.58z" fill="url(#linear-gradient-9)"/><path d="M791.29 644.32l-48.73 13.85a2.07 2.07 0 0 0-1.5 2l.75 28.14a3.27 3.27 0 0 0 4.16 3.06l50.27-14.1-.8-29.94a3.27 3.27 0 0 0-4.15-3.01z" fill="url(#linear-gradient-10)"/><g clip-path="url(#clip-path-3)"><g clip-path="url(#clip-path-4)"><path fill="url(#linear-gradient-11)" d="M1011.9 521.86l-85.91-86.02-10.62 2.84-2.86 10.63 85.91 86.02 10.63-2.84 2.85-10.63z"/><path fill="url(#linear-gradient-12)" d="M922.99 446.02l-10.48 3.29 85.91 86.02 10.63-2.84-86.06-86.47z"/><path d="M926.4 449.9l-9.85 3a.63.63 0 0 1-.62-.15l-3.41-3.39L926 435.83l3.37 3.37a.63.63 0 0 1 .16.61l-2.69 9.64a.63.63 0 0 1-.44.45z" fill="url(#linear-gradient-13)"/><path class="cls-16" d="M926 435.84l-10.63 2.84-2.85 10.63 10-3.13a1 1 0 0 0 .66-.67z"/></g><g clip-path="url(#clip-path-5)"><path fill="url(#linear-gradient-14)" d="M1185.76 532.86L915.89 262.01l-59.62 15.39-13.37 47.39 270.77 271.29 59.43-16.06 12.66-47.16z"/><path fill="url(#linear-gradient-15)" d="M899.07 305.56l-56.17 19.23 270.77 271.29 59.43-16.06-274.03-274.46z"/><path d="M903.6 317.41L851.18 331a3 3 0 0 1-2.86-.77l-5.14-5.06 73-62.83 4.93 5a3 3 0 0 1 .77 2.92l-11.15 40.14a10 10 0 0 1-7.13 7.01z" fill="url(#linear-gradient-16)"/><path class="cls-16" d="M897.42 310.43L843 324.49l13.28-47.08L915.89 262l-11.83 41.93a9.31 9.31 0 0 1-6.64 6.5z"/><path d="M897.42 310.43L843 324.49l13.28-47.08L915.89 262l-11.83 41.93a9.31 9.31 0 0 1-6.64 6.5z" opacity=".31" fill="#6380ff"/><path class="cls-29" d="M845.32 316.21l12.15-12.6a2.71 2.71 0 0 1 4 .17l2.07 2.53a2.71 2.71 0 0 0 4 .17L891 282.19a2.71 2.71 0 0 1 4.05.17l11.17 13.79-1.83 6.47a11.74 11.74 0 0 1-8.32 8.17l-53.21 14zM865 290.68c.85-3 3.75-6 6.48-6.72s4.25 1.16 3.41 4.17-3.75 6-6.48 6.72-4.22-1.17-3.41-4.17z"/><path class="cls-16" d="M910.15 267.62L900.44 302a6.85 6.85 0 0 1-4.87 4.75l-47.42 12.46 11.32-38.53 50.68-13.08m5.74-5.61l-59.62 15.41-14 47.5 54.27-14.26a10.82 10.82 0 0 0 7.71-7.54l11.6-41.1z"/></g><g clip-path="url(#clip-path-6)"><path fill="url(#linear-gradient-17)" d="M1133.07 664.1l-128.51-129.51-13.32 48.67 128.84 129.24 12.99-48.4z"/><path d="M988 583.89L929.66 599l129.43 130 61-16.47-126.7-127.17a5.62 5.62 0 0 0-5.39-1.47z" fill="url(#linear-gradient-18)"/></g><path d="M997.94 591.94l-57.06 15.95a3.09 3.09 0 0 1-3.05-.82l-6.63-6.84 74.46-64.92 5.77 5.8a3.09 3.09 0 0 1 .8 3l-12.13 45.68a3.09 3.09 0 0 1-2.16 2.15z" fill="url(#linear-gradient-19)"/><path d="M997.45 589.79l-5.74-5.2 14-49.29 5.66 5.69a3.36 3.36 0 0 1 .86 3.24l-12 44.76a1.67 1.67 0 0 1-2.78.8z" fill="url(#linear-gradient-20)"/><path class="cls-16" d="M1003.26 534.87l-30.5 8.67c-1.71.49-2.84-.27-2.4-1.74s-.62-2.33-2.38-1.83l-18.82 5.35a6 6 0 0 0-3.9 3.57l-.75 2.68L932 596.19a3.62 3.62 0 0 0 4.47 4.46l55.66-15.83 13.55-48.17c.38-1.47-.68-2.27-2.42-1.78z"/><path d="M1003.26 534.87l-30.5 8.67c-1.71.49-2.84-.27-2.4-1.74s-.62-2.33-2.38-1.83l-18.82 5.35a6 6 0 0 0-3.9 3.57l-.75 2.68L932 596.19c-.77 2.72 2.44 3.13 5.16 2.35l55-13.72 13.55-48.17c.35-1.47-.71-2.27-2.45-1.78z" fill="url(#linear-gradient-21)"/><path class="cls-16" d="M986.46 547.45l-55.52 15.78a2.36 2.36 0 0 0-1.71 2.33l.86 32.06a3.72 3.72 0 0 0 4.74 3.48l57.28-16.28-.9-33.89a3.72 3.72 0 0 0-4.75-3.48z"/><path d="M986.46 547.45l-55.52 15.78a2.36 2.36 0 0 0-1.71 2.33l.86 32.06a3.72 3.72 0 0 0 4.74 3.48l57.28-16.28-.9-33.89a3.72 3.72 0 0 0-4.75-3.48z" fill="url(#linear-gradient-22)"/><g clip-path="url(#clip-path-7)"><path fill="url(#linear-gradient-23)" d="M915.97 262.31l-24.96-25.18-14 46.44 26.3 25.9 12.66-47.16z"/><path fill="url(#linear-gradient-24)" d="M817.87 299.76l25.93 25.69 59.44-16.05-25.9-25.57-59.47 15.93z"/><path d="M873.24 287l-52.43 13.61a3 3 0 0 1-2.86-.77l-5.14-5.06 73-62.83 4.93 5a3 3 0 0 1 .77 2.92L880.37 280a10 10 0 0 1-7.13 7z" fill="url(#linear-gradient-25)"/><path class="cls-16" d="M867.39 280.4L813 294.45l13.28-47.08L885.85 232 874 273.91a9.31 9.31 0 0 1-6.61 6.49z"/><path d="M867.39 280.4L813 294.45l13.28-47.08L885.85 232 874 273.91a9.31 9.31 0 0 1-6.61 6.49z" fill="#00d7d2" opacity=".31"/><path class="cls-42" d="M815.29 286.17l12.15-12.6a2.71 2.71 0 0 1 4 .17l2.07 2.53a2.71 2.71 0 0 0 4 .17L861 252.16a2.71 2.71 0 0 1 4.05.17l11.17 13.79-1.83 6.47a11.74 11.74 0 0 1-8.32 8.17l-53.21 14zM835 260.64c.85-3 3.75-6 6.48-6.72s4.25 1.16 3.41 4.17-3.75 6-6.48 6.72-4.25-1.16-3.41-4.17z"/><path class="cls-16" d="M880.11 237.59l-10 35.4a5 5 0 0 1-3.59 3.5l-48.48 12.8 11.38-38.61 50.68-13.09m5.74-5.61l-59.62 15.39-14 47.59 55.35-14.61a9 9 0 0 0 6.42-6.28L885.85 232z"/></g><g clip-path="url(#clip-path-8)"><path fill="url(#linear-gradient-26)" d="M1166.52 593.86l-74.67-74.85-16.89 4.52-4.54 16.89 74.67 74.86 16.89-4.52 4.54-16.9z"/><path fill="url(#linear-gradient-27)" d="M1087.08 535.2l-16.66 5.22 74.67 74.86 16.89-4.52-74.9-75.56z"/><path d="M1090.91 539.78l-15.66 4.72a1 1 0 0 1-1-.25l-3.84-3.81 21.43-21.44 3.76 3.77a1 1 0 0 1 .25 1l-4.28 15.33a1 1 0 0 1-.66.68z" fill="url(#linear-gradient-28)"/><path class="cls-16" d="M1091.85 519l-16.9 4.52-4.53 16.89 15.89-5a1.5 1.5 0 0 0 1-1z"/></g></g><path fill="url(#linear-gradient-29)" d="M970.43 533.97l-128.3-129.04-13.44 48.17 128.79 129.08 12.95-48.21z"/><path fill="url(#linear-gradient-30)" d="M747.64 473.88l128.58 128.97 81.26-20.67-129.29-129.62-80.55 21.32z"/><path d="M835 461.21l-78.25 19.59a3 3 0 0 1-2.84-.77l-5.86-5.78 94.28-69.08 5.82 5.85a3 3 0 0 1 .78 2.88l-11.79 45.16a3 3 0 0 1-2.14 2.15z" fill="url(#linear-gradient-31)"/><path d="M825.74 455l-76 19.4c-1.68.43-2.7-.39-2.29-1.83l12.88-45.27a5.65 5.65 0 0 1 3.77-3.38l76-19.4c1.68-.43 2.7.39 2.29 1.83l-12.88 45.27a5.65 5.65 0 0 1-3.77 3.38z" fill="url(#linear-gradient-32)"/><path d="M820.06 450.76l-61.11 15.6c-.18 0-.28 0-.24-.19l.3-1.07a.59.59 0 0 1 .4-.36l61.11-15.6c.18 0 .28 0 .24.19l-.3 1.07a.59.59 0 0 1-.4.36z" opacity=".4" fill="#fff"/><path class="cls-16" d="M804.87 454.64l-45.92 11.73c-.18 0-.28 0-.24-.19l.3-1.07a.59.59 0 0 1 .4-.36L805.33 453c.18 0 .28 0 .24.19l-.3 1.07a.59.59 0 0 1-.4.38z"/><path class="cls-16" d="M806 455.79l-3.47.88c-.57.14-.91-.13-.78-.62l.85-3a1.91 1.91 0 0 1 1.28-1.14l3.47-.88c.57-.14.91.13.78.62l-.85 3a1.91 1.91 0 0 1-1.28 1.14z"/><path class="cls-42" d="M785.48 441.83c1.28-4.49 6.55-9.21 11.78-10.54s8.43 1.22 7.16 5.71-6.55 9.21-11.78 10.54-8.43-1.22-7.16-5.71z"/><path class="cls-16" d="M793.37 436.43l5.45 2-7.53 5.31 2.08-7.31zM786 426.88l-16.88 4.31c-.25.06-.4-.06-.34-.27l.23-.82a.84.84 0 0 1 .56-.5l16.88-4.31c.25-.06.4.06.34.27l-.23.82a.84.84 0 0 1-.56.5zM777.55 432.53L768 435c-.25.06-.4-.06-.34-.27l.23-.82a.84.84 0 0 1 .56-.5l9.55-2.44c.25-.06.4.06.34.27l-.23.82a.84.84 0 0 1-.56.47z"/><path fill="url(#linear-gradient-33)" d="M1217.45 464.59l-145.88-146.73-16.7 55.49 147.4 147.74 15.18-56.5z"/><path fill="url(#linear-gradient-34)" d="M1001.79 388.23l147.24 147.71 53.61-14.48-147.23-147.62-53.62 14.39z"/><path d="M1061.45 382l-50.52 13.19a3 3 0 0 1-2.87-.77l-6.27-6.2 69.78-70.37 6 6a3 3 0 0 1 .76 2.92l-14.74 53.11a3 3 0 0 1-2.14 2.12z" fill="url(#linear-gradient-35)"/><path class="cls-16" d="M1054.56 374.55l-51.69 13.76c-1 .26-1.6-.21-1.36-1.06l15-53.75a3.36 3.36 0 0 1 2.22-2l51.69-13.76c1-.26 1.6.21 1.36 1.06l-15 53.75a3.36 3.36 0 0 1-2.22 2z"/><path class="cls-55" d="M1057.56 331.62l-22.17 5.9c-.22.06-.35 0-.3-.23l.2-.71a.73.73 0 0 1 .48-.44l22.17-5.9c.22-.06.35 0 .3.23l-.2.71a.73.73 0 0 1-.48.44zM1044.34 338.53l-10 2.66c-.22.06-.35 0-.3-.23l.2-.71a.73.73 0 0 1 .48-.44l10-2.66c.22-.06.35 0 .3.23l-.2.71a.73.73 0 0 1-.48.44z"/><path class="cls-56" d="M1023.08 341.86a5.72 5.72 0 0 1 3.78-3.42c1.68-.45 2.72.36 2.31 1.8a5.72 5.72 0 0 1-3.78 3.42c-1.68.45-2.71-.36-2.31-1.8z"/><path class="cls-55" d="M1054.45 342.78l-22.17 5.9c-.22.06-.35 0-.3-.23l.2-.71a.73.73 0 0 1 .48-.44l22.17-5.9c.22-.06.35 0 .3.23l-.2.71a.73.73 0 0 1-.48.44zM1053.42 346.44l-22.17 5.9c-.22.06-.35 0-.3-.23l.2-.71a.73.73 0 0 1 .48-.44l22.17-5.9c.22-.06.35 0 .3.23l-.2.71a.73.73 0 0 1-.48.44z"/><path class="cls-56" d="M1020 353a5.72 5.72 0 0 1 3.78-3.42c1.68-.45 2.72.36 2.31 1.8a5.72 5.72 0 0 1-3.78 3.42c-1.72.46-2.75-.34-2.31-1.8z"/><path class="cls-55" d="M1051.33 353.93l-22.17 5.9c-.22.06-.35 0-.3-.23l.2-.71a.73.73 0 0 1 .48-.44l22.17-5.9c.22-.06.35 0 .3.23l-.2.71a.73.73 0 0 1-.48.44zM1047.08 358.45l-18.95 5c-.22.06-.35 0-.3-.23l.2-.71a.73.73 0 0 1 .48-.44l18.95-5c.22-.06.35 0 .3.23l-.2.71a.73.73 0 0 1-.48.44z"/><path class="cls-56" d="M1016.84 364.17a5.72 5.72 0 0 1 3.78-3.42c1.68-.45 2.72.36 2.31 1.8a5.72 5.72 0 0 1-3.78 3.42c-1.67.45-2.71-.36-2.31-1.8z"/><path class="cls-55" d="M1048.21 365.09L1026 371c-.22.06-.35 0-.3-.23l.2-.71a.73.73 0 0 1 .48-.44l22.17-5.9c.22-.06.35 0 .3.23l-.2.71a.73.73 0 0 1-.44.43zM1038.48 371.06l-13.48 3.59c-.22.06-.35 0-.3-.23l.2-.71a.73.73 0 0 1 .48-.44l13.47-3.59c.22-.06.35 0 .3.23l-.2.71a.73.73 0 0 1-.47.44z"/><path class="cls-56" d="M1013.72 375.32a5.72 5.72 0 0 1 3.78-3.42c1.68-.45 2.72.36 2.31 1.8a5.72 5.72 0 0 1-3.78 3.42c-1.67.45-2.71-.35-2.31-1.8z"/><path fill="url(#linear-gradient-36)" d="M782.5 565.41l124.64 125.03 44.04-11.9L826.55 553.6l-44.05 11.81z"/><path d="M831.63 560.87l-41.15 10.39a3 3 0 0 1-2.84-.77l-5.15-5.07 56.86-58.7 5 5a3 3 0 0 1 .78 2.86l-11.32 44.12a3 3 0 0 1-2.18 2.17z" fill="url(#linear-gradient-37)"/><path class="cls-16" d="M825.65 554.54l-42 11.15c-.78.21-1.26-.17-1.08-.85l12.12-45.5a2.61 2.61 0 0 1 1.73-1.6l42-11.15c.78-.21 1.26.17 1.08.85l-12.12 45.5a2.61 2.61 0 0 1-1.73 1.6z"/><path class="cls-55" d="M828.3 518.73l-14.23 3.78c-.17 0-.27 0-.23-.18l.15-.56a.56.56 0 0 1 .38-.35l14.23-3.78c.17 0 .27 0 .23.18l-.15.56a.56.56 0 0 1-.38.35zM827.31 522.45l-14.23 3.78c-.17 0-.27 0-.23-.18l.15-.56a.56.56 0 0 1 .38-.35l14.23-3.78c.17 0 .27 0 .23.18l-.15.56a.56.56 0 0 1-.38.35z"/><g opacity=".5"><path class="cls-55" d="M824.78 531.87L797.89 539c-.17 0-.27 0-.23-.18l.15-.56a.56.56 0 0 1 .38-.35l26.89-7.14c.17 0 .27 0 .23.18l-.15.56a.56.56 0 0 1-.38.36zM823.71 535.86L796.82 543c-.17 0-.27 0-.23-.18l.15-.56a.56.56 0 0 1 .38-.35l26.88-7.14c.17 0 .27 0 .23.18l-.15.56a.56.56 0 0 1-.37.35zM822.65 539.85L795.76 547c-.17 0-.27 0-.23-.18l.15-.56a.56.56 0 0 1 .38-.35l26.89-7.14c.17 0 .27 0 .23.18l-.15.56a.56.56 0 0 1-.38.34zM821.59 543.84L794.7 551c-.17 0-.27 0-.23-.18l.15-.56a.56.56 0 0 1 .38-.35l26.89-7.14c.17 0 .27 0 .23.18l-.15.56a.56.56 0 0 1-.38.33zM811.25 550.3l-17.62 4.7c-.17 0-.27 0-.23-.18l.15-.56a.56.56 0 0 1 .38-.35l17.61-4.67c.17 0 .27 0 .23.18l-.15.56a.56.56 0 0 1-.37.32z"/></g><path class="cls-42" d="M800.65 528.1l3.36-3.67c.64-.7 1.62-1 2-.52l1.76 2.32c.41.54-.43 1.67-1.42 1.94l-5.12 1.36c-1.05.25-1.36-.58-.58-1.43z"/><path fill="url(#linear-gradient-38)" d="M963.73 631.8L839.35 506.72l-13.02 46.69 124.85 125.13 12.55-46.74z"/><g clip-path="url(#clip-path-9)"><path fill="url(#linear-gradient-39)" d="M946.17 709.61l-64.8-64.97-15.21 4.07-4.08 15.2 64.8 64.96 15.21-4.06 4.08-15.2z"/><path fill="url(#linear-gradient-40)" d="M877.07 659.2l-14.99 4.71 64.8 64.96 15.21-4.06-65.02-65.61z"/><path d="M881 664.25l-13.77 4.16a.9.9 0 0 1-.89-.22l-4.28-4.25 19.27-19.29 4.21 4.22a.9.9 0 0 1 .23.88L882 663.21a1.5 1.5 0 0 1-1 1.04z" fill="url(#linear-gradient-41)"/><path class="cls-16" d="M881.37 644.64l-15.2 4.07-4.08 15.2 14.22-4.46a1.5 1.5 0 0 0 1-1z"/></g><g clip-path="url(#clip-path-10)"><path fill="url(#linear-gradient-42)" d="M1250.78 394.7l-47.32-47.41-8.4 2.25-2.25 8.4 47.32 47.41 8.4-2.25 2.25-8.4z"/><path fill="url(#linear-gradient-43)" d="M1201.09 355.34l-8.28 2.6 47.32 47.41 8.4-2.25-47.44-47.76z"/><path d="M1203.61 358.58l-7.52 2.27a.49.49 0 0 1-.49-.12l-2.8-2.78 10.65-10.66 2.76 2.76a.5.5 0 0 1 .13.48l-2.05 7.36a1 1 0 0 1-.68.69z" fill="url(#linear-gradient-44)"/><path class="cls-16" d="M1203.46 347.29l-8.4 2.25-2.25 8.4 7.77-2.44a1 1 0 0 0 .66-.67z"/></g><g clip-path="url(#clip-path-11)"><path fill="url(#linear-gradient-45)" d="M1222.33 438.62l-83.28-83.55-24.22 6.48-6.5 24.21 83.28 83.55 24.22-6.48 6.5-24.21z"/><path fill="url(#linear-gradient-46)" d="M1132.2 378.26l-23.87 7.5 83.28 83.55 24.22-6.48-83.63-84.57z"/><path d="M1137.11 384.25l-22.44 6.75a1.43 1.43 0 0 1-1.42-.35l-4.92-4.87 30.7-30.73 4.81 4.82a1.43 1.43 0 0 1 .37 1.4l-6.13 22a1.43 1.43 0 0 1-.97.98z" fill="url(#linear-gradient-47)"/><path class="cls-16" d="M1139 355.07l-24.22 6.48-6.5 24.21 22.85-7.17a2 2 0 0 0 1.32-1.34z"/></g></svg>