<svg width="526" height="362" xmlns="http://www.w3.org/2000/svg" xmlns:xlink="http://www.w3.org/1999/xlink"><defs><rect id="a" width="450" height="250" rx="6"/><mask id="b" x="0" y="0" width="450" height="250" fill="#fff"><use xlink:href="#a"/></mask><linearGradient x1="50%" y1="100%" x2="50%" y2="95.1574%" id="e"><stop stop-color="#E5E8ED" stop-opacity="-4.879" offset="0%"/><stop stop-color="#E5E8ED" stop-opacity=".2" offset="12.5%"/><stop stop-color="#E5E8ED" stop-opacity="0" offset="100%"/></linearGradient><rect id="d" y="270" width="450" height="80" rx="6"/><filter x="-3.1%" y="-12.5%" width="106.2%" height="135%" filterUnits="objectBoundingBox" id="c"><feOffset dy="4" in="SourceAlpha" result="shadowOffsetOuter1"/><feGaussianBlur stdDeviation="4" in="shadowOffsetOuter1" result="shadowBlurOuter1"/><feComposite in="shadowBlurOuter1" in2="SourceAlpha" operator="out" result="shadowBlurOuter1"/><feColorMatrix values="0 0 0 0 0.0117647059 0 0 0 0 0.105882353 0 0 0 0 0.305882353 0 0 0 0.1 0" in="shadowBlurOuter1"/></filter><path d="M75.6 0L108 32.4v99.36c0 1.7894-1.4506 3.24-3.24 3.24H3.24C1.4506 135 0 133.5494 0 131.76V3.24C0 1.4506 1.4506 0 3.24 0H75.6z" id="g"/><filter x="-13%" y="-7.4%" width="125.9%" height="120.7%" filterUnits="objectBoundingBox" id="f"><feOffset dy="4" in="SourceAlpha" result="shadowOffsetOuter1"/><feGaussianBlur stdDeviation="4" in="shadowOffsetOuter1" result="shadowBlurOuter1"/><feComposite in="shadowBlurOuter1" in2="SourceAlpha" operator="out" result="shadowBlurOuter1"/><feColorMatrix values="0 0 0 0 0.0117647059 0 0 0 0 0.105882353 0 0 0 0 0.305882353 0 0 0 0.1 0" in="shadowBlurOuter1"/></filter><path d="M75.6 0L108 32.4v99.36c0 1.7894-1.4506 3.24-3.24 3.24H3.24C1.4506 135 0 133.5494 0 131.76V3.24C0 1.4506 1.4506 0 3.24 0H75.6z" id="i"/><filter x="-13%" y="-7.4%" width="125.9%" height="120.7%" filterUnits="objectBoundingBox" id="h"><feOffset dy="4" in="SourceAlpha" result="shadowOffsetOuter1"/><feGaussianBlur stdDeviation="4" in="shadowOffsetOuter1" result="shadowBlurOuter1"/><feComposite in="shadowBlurOuter1" in2="SourceAlpha" operator="out" result="shadowBlurOuter1"/><feColorMatrix values="0 0 0 0 0.0117647059 0 0 0 0 0.105882353 0 0 0 0 0.305882353 0 0 0 0.1 0" in="shadowBlurOuter1"/></filter><path d="M5.0303 14s-2.2192-1.6987-3-3c-.7807-1.3013-2.2602-2.959-2-4 .2603-1.041 1.2193-1.369 2-.5883.7808.7807 1.3067 2.4724 1.8272 2.2121.5205-.2602.1301-2.7326-.3904-4.164C2.9466 3.0284 2.404 0 3.4671 0c1.0632 0 1.0632 1 1.5632 2.5s.1096 3.5.5 3.5c.3904 0 .5394-.3494.5394-1 0-.1768.0346-.3263.105-.4501.1886-.332.6337-.4805 1.3556-.4805.9913 0 .5 1.9306 1 1.9306s.5.041.5-1 .4636-.9306 1.4636-.9306S11.0098 6 11.5303 6s0-1 .5-1 1 .1577 1 2.5.2808 2.459-.5 3.5l-1.5 2s0 1-.5364 1c-.5363 0-.813-1-1.4636-1-.6506 0-1 1-1 1h-3zm6-2V8h-1v4h1zm-3-1c0 .2709.232 1 .5 1 .2762 0 .5-.7246.5-1V9c0-.2709-.232-1-.5-1-.2761 0-.5.7246-.5 1v2zm-2 0c0 .2709.232 1 .5 1 .2762 0 .5-.7246.5-1V9c0-.2709-.232-1-.5-1-.2761 0-.5.7246-.5 1v2z" id="k"/><filter x="-34.4%" y="-25%" width="168.8%" height="164.3%" filterUnits="objectBoundingBox" id="j"><feMorphology radius="1" operator="dilate" in="SourceAlpha" result="shadowSpreadOuter1"/><feOffset dy="1" in="shadowSpreadOuter1" result="shadowOffsetOuter1"/><feGaussianBlur stdDeviation="1" in="shadowOffsetOuter1" result="shadowBlurOuter1"/><feComposite in="shadowBlurOuter1" in2="SourceAlpha" operator="out" result="shadowBlurOuter1"/><feColorMatrix values="0 0 0 0 0 0 0 0 0 0 0 0 0 0 0 0 0 0 1 0" in="shadowBlurOuter1"/></filter></defs><g transform="translate(8)" fill="none" fill-rule="evenodd"><use stroke="#BECBE2" mask="url(#b)" stroke-width="4" fill="#F6F8FF" stroke-linecap="round" stroke-dasharray="10,8" xlink:href="#a"/><use fill="#000" filter="url(#c)" xlink:href="#d"/><use fill="#FFF" xlink:href="#d"/><use fill="url(#e)" xlink:href="#d"/><rect stroke-opacity=".1" stroke="#031B4E" x=".5" y="270.5" width="449" height="79" rx="6"/><path stroke="#0069FF" stroke-width="2.1606" stroke-linecap="round" stroke-linejoin="round" d="M409.5 308.5l-4.9992 5-5.0008-5"/><path d="M76.592 307.696c1.808 0 3.04 1.344 3.04 3.328V316h-1.376v-4.784c0-1.36-.752-2.24-1.984-2.24-1.184 0-1.936.864-2.048 1.968V316h-1.392v-4.784c0-1.36-.784-2.24-1.936-2.24-1.296 0-2.128 1.024-2.128 2.256V316h-1.376v-8.16h1.312v1.232c.384-.752 1.2-1.376 2.48-1.376 1.2 0 2.176.592 2.672 1.616.48-.944 1.424-1.616 2.736-1.616zm7.456 12.384h-1.52l1.936-4.528-3.248-7.712h1.536l2.464 6.16 2.448-6.16H89.2l-5.152 12.24zm15.632-2.784h-9.52V316h9.52v1.296zm4.944-9.6c2.016 0 3.12 1.152 3.12 3.168V316h-1.392v-.96c-.592.704-1.424 1.12-2.432 1.12-1.584 0-2.672-.832-2.672-2.32 0-1.696 1.28-2.336 2.992-2.432l2.112-.128v-.384c0-1.232-.544-1.984-1.712-1.984-1.216 0-1.776.832-1.776 1.696l-1.392-.064c0-1.408 1.168-2.848 3.152-2.848zm1.744 4.688l-1.952.128c-1.056.064-1.776.4-1.776 1.296 0 .864.624 1.168 1.488 1.168 1.232 0 2.24-.624 2.24-2.256v-.336zm8.304-4.688c2.24 0 3.936 1.6 3.936 4.224 0 2.64-1.696 4.24-3.936 4.24-1.376 0-2.368-.592-2.832-1.376v5.296h-1.376v-12.24h1.312v1.344c.464-.848 1.488-1.488 2.896-1.488zm-.208 1.2c-1.488 0-2.608.944-2.608 2.8v.48c0 1.84 1.12 2.784 2.608 2.784 1.552 0 2.736-1.072 2.736-3.024 0-1.968-1.184-3.04-2.736-3.04zm10.592-1.2c2.24 0 3.936 1.6 3.936 4.224 0 2.64-1.696 4.24-3.936 4.24-1.376 0-2.368-.592-2.832-1.376v5.296h-1.376v-12.24h1.312v1.344c.464-.848 1.488-1.488 2.896-1.488zm-.208 1.2c-1.488 0-2.608.944-2.608 2.8v.48c0 1.84 1.12 2.784 2.608 2.784 1.552 0 2.736-1.072 2.736-3.024 0-1.968-1.184-3.04-2.736-3.04zm7.76 7.104h-1.376v-12.432h1.376V316zm3.504-12.016c.496 0 .912.4.912.912 0 .496-.416.896-.912.896-.512 0-.912-.4-.912-.896 0-.512.416-.912.912-.912zm.672 12.016h-1.376v-8.16h1.376V316zm6.272-8.304c1.92 0 3.424 1.152 3.664 3.056l-1.344.112c-.144-1.232-1.088-1.984-2.32-1.984-1.52 0-2.608 1.104-2.608 3.04 0 1.952 1.12 3.04 2.608 3.04 1.28 0 2.144-.704 2.336-1.856l1.344.128c-.304 1.808-1.712 2.928-3.68 2.928-2.288 0-4.016-1.552-4.016-4.24s1.712-4.224 4.016-4.224zm8.608 0c2.016 0 3.12 1.152 3.12 3.168V316h-1.392v-.96c-.592.704-1.424 1.12-2.432 1.12-1.584 0-2.672-.832-2.672-2.32 0-1.696 1.28-2.336 2.992-2.432l2.112-.128v-.384c0-1.232-.544-1.984-1.712-1.984-1.216 0-1.776.832-1.776 1.696l-1.392-.064c0-1.408 1.168-2.848 3.152-2.848zm1.744 4.688l-1.952.128c-1.056.064-1.776.4-1.776 1.296 0 .864.624 1.168 1.488 1.168 1.232 0 2.24-.624 2.24-2.256v-.336zm7.232 2.48c.336 0 .608-.048.8-.08v1.232c-.272.048-.592.096-1.104.096-1.488 0-2.528-.768-2.512-2.56l.016-4.512h-1.52v-1.2h1.52l.016-2.816h1.392l-.016 2.816h2.192v1.2h-2.192l-.032 4.24c0 1.184.64 1.584 1.44 1.584zm3.28-10.88c.496 0 .912.4.912.912 0 .496-.416.896-.912.896-.512 0-.912-.4-.912-.896 0-.512.416-.912.912-.912zm.672 12.016h-1.376v-8.16h1.376V316zm6.448-8.304c2.368 0 4.192 1.632 4.192 4.224 0 2.592-1.824 4.24-4.192 4.24-2.368 0-4.192-1.648-4.192-4.24 0-2.592 1.824-4.224 4.192-4.224zm0 1.2c-1.584 0-2.8 1.12-2.8 3.024s1.216 3.04 2.8 3.04c1.584 0 2.8-1.136 2.8-3.04 0-1.904-1.216-3.024-2.8-3.024zm10.304-1.2c1.84 0 3.168 1.296 3.168 3.344V316h-1.392v-4.784c0-1.36-.832-2.24-2.064-2.24-1.296 0-2.192 1.024-2.192 2.256V316h-1.376v-8.16h1.312v1.216c.4-.736 1.248-1.36 2.544-1.36zm6.144 6.56c.528 0 .96.432.96.96 0 .512-.432.944-.96.944-.512 0-.928-.432-.928-.944 0-.528.416-.96.928-.96zm7.264-6.56c2.24 0 3.936 1.6 3.936 4.224 0 2.64-1.696 4.24-3.936 4.24-1.376 0-2.368-.592-2.832-1.376v5.296h-1.376v-12.24h1.312v1.344c.464-.848 1.488-1.488 2.896-1.488zm-.208 1.2c-1.488 0-2.608.944-2.608 2.8v.48c0 1.84 1.12 2.784 2.608 2.784 1.552 0 2.736-1.072 2.736-3.024 0-1.968-1.184-3.04-2.736-3.04zm8.08 11.184h-1.52l1.936-4.528-3.248-7.712h1.536l2.464 6.16 2.448-6.16h1.536l-5.152 12.24z" fill-opacity=".6" fill="#012761"/><path fill="#FFF" d="M30.5004 299.4999v22.766h16v-17.945l-4.353-4.821z"/><path stroke="#0069FF" stroke-linecap="round" stroke-linejoin="round" d="M46.5002 322.2656h-16v-22.766h11.647l4.353 4.822z"/><path d="M42.8986 304.3213h3.602l-4.353-4.821v3.99c0 .459.336.831.751.831" fill="#B3D9FF"/><path d="M42.8986 304.3213h3.602l-4.353-4.821v3.99c0 .459.336.831.751.831z" stroke="#0069FF" stroke-linecap="round" stroke-linejoin="round"/><path d="M39.0138 306.96h4.733M33.2531 306.96h2.148M33.2531 309.9033h10.494M41.8673 312.8457h1.88M33.2531 312.8457h5.247M35.7199 315.7891h8.027" stroke="#B3D9FF" stroke-linecap="round"/><path d="M35.4015 306.96h3.612M38.5002 312.8457h3.367M33.2531 315.7891h2.467" stroke="#0069FF" stroke-linecap="round" stroke-linejoin="round"/><g><g transform="translate(382 68)"><use fill="#000" filter="url(#f)" xlink:href="#g"/><use fill="#FFF" xlink:href="#g"/><use fill="url(#e)" xlink:href="#g"/><path stroke-opacity=".1" stroke="#031B4E" d="M75.3929.5H3.24C1.7267.5.5 1.7267.5 3.24v128.52c0 1.5133 1.2267 2.74 2.74 2.74h101.52c1.5133 0 2.74-1.2267 2.74-2.74V32.6071L75.3929.5z"/></g><path d="M457.6 68l32.4 32.4h-29.16c-1.7894 0-3.24-1.4506-3.24-3.24V68z" fill="#DFDFDF"/><text font-family=".SFNSDisplay, .SF NS Display" font-size="21.6" fill="#0069FF" transform="translate(382 68)"><tspan x="33.48" y="75.54">PDF</tspan></text></g><g><g transform="translate(402 48)"><use fill="#000" filter="url(#h)" xlink:href="#i"/><use fill="#FFF" xlink:href="#i"/><use fill="url(#e)" xlink:href="#i"/><path stroke-opacity=".1" stroke="#031B4E" d="M75.3929.5H3.24C1.7267.5.5 1.7267.5 3.24v128.52c0 1.5133 1.2267 2.74 2.74 2.74h101.52c1.5133 0 2.74-1.2267 2.74-2.74V32.6071L75.3929.5z"/></g><g transform="translate(413 173)"><use fill="#000" filter="url(#j)" xlink:href="#k"/><use fill="#FFF" xlink:href="#k"/><path stroke="#000" d="M4.3465 1.975a33.0638 33.0638 0 0 1 .001.0036zM3.6064 7.869c-.0037-.2043-.011-.4956-.0503-.8295-.0927-.7886-.311-1.7272-.5589-2.4087-.2997-.8243-.556-1.9814-.6226-2.9014C2.2776.391 2.5409-.5 3.467-.5c.9264 0 1.333.4858 1.6645 1.5862-.0298-.0988.2666.9365.373 1.2557.1048.3141.1784.6567.228 1.0328.0367.2793.0571.5156.0707.8278.3154-.4507.8932-.6331 1.727-.6331.589 0 .8987.304 1.0638.8377.0776-.3012.2305-.5202.4826-.6658.2835-.1636.4889-.1808 1.1723-.1736.12.0013.1736.0017.245.0017.6637 0 .9752.3825 1.1293 1.0472.113-.0747.251-.1166.407-.1166 1.0585 0 1.5.7824 1.5 3 0 .4126.008.7605.0242 1.1875.044 1.1622.0403 1.3105-.106 1.7226-.0977.275-.2533.5368-.5182.8899l-1.407 1.876a2.514 2.514 0 0 1-.0771.4535c-.1356.5057-.4291.8705-.9523.8705-.3806 0-.6285-.1769-.9459-.534a14.7515 14.7515 0 0 1-.1202-.1378c-.221-.254-.3206-.3282-.3975-.3282-.0818 0-.202.0908-.3295.2796-.0984.146-.1677.2974-.1985.3853l-.117.3351H4.8609l-.1345-.103a18.4472 18.4472 0 0 1-.526-.4227c-.3914-.3247-.783-.6697-1.1498-1.021-.3077-.2947-.5846-.5814-.8236-.8568-.2574-.2966-.4678-.5764-.6254-.8393-.1728-.2878-.2582-.4147-.7691-1.1573a43.5406 43.5406 0 0 1-.2361-.346C-.2914 8.4375-.6463 7.645-.4548 6.8788-.098 5.4518 1.334 5.0083 2.384 6.0581c.2532.2532.4745.566.7508 1.0256.0632.1051.2748.4658.3157.534.059.0988.1101.1811.156.2512zM10.5304 10V8l-.5.5h1l-.5-.5v2zm0 0v2l.5-.5h-1l.5.5v-2zM8.7106 8.4469c-.0277.0251-.0844.0531-.1804.0531-.1083 0-.1665-.0335-.1916-.0605a.8573.8573 0 0 1 .0817.1538c.0639.151.11.3399.11.4067v2c0 .0716-.0449.2604-.1076.4098-.029.069-.0584.1222-.0796.1496.0344-.0314.0911-.0594.1871-.0594.1083 0 .1666.0335.1917.0605a.8573.8573 0 0 1-.0818-.1538c-.0639-.151-.1099-.3399-.1099-.4067V9c0-.0716.0448-.2604.1075-.4098.029-.069.0584-.1222.0796-.1496zm-.3675 3.1125a.17.17 0 0 1-.0034.0042.1026.1026 0 0 1 .0101-.0105zm.3788.0011a.0957.0957 0 0 1 .004.0046.2364.2364 0 0 1-.0116-.0155zM6.7107 8.447c-.0277.0251-.0844.0531-.1804.0531-.1083 0-.1665-.0335-.1916-.0605a.8573.8573 0 0 1 .0817.1538c.0639.151.11.3399.11.4067v2c0 .0716-.0449.2604-.1076.4098-.029.069-.0584.1222-.0796.1496.0344-.0314.0911-.0594.1871-.0594.1083 0 .1666.0335.1917.0605a.8573.8573 0 0 1-.0818-.1538c-.0639-.151-.1099-.3399-.1099-.4067V9c0-.0716.0448-.2604.1075-.4098.029-.069.0584-.1222.0796-.1496zm-.3675 3.1125a.17.17 0 0 1-.0034.0042.1026.1026 0 0 1 .0101-.0105z"/></g><path d="M477.6 48L510 80.4h-29.16c-1.7894 0-3.24-1.4506-3.24-3.24V48z" fill="#BECBE2"/><g fill-rule="nonzero"><path d="M456.0656 93.0004c-1.8417.0086-3.6004.1678-5.1479.4452-4.5587.816-5.3864 2.524-5.3864 5.6737v4.1598h10.7728v1.3867h-14.8158c-3.1309 0-5.8724 1.9066-6.73 5.5337-.989 4.1575-1.033 6.7518 0 11.093.7659 3.2312 2.5946 5.5336 5.7255 5.5336h3.704v-4.9867c0-3.6026 3.0765-6.7804 6.7299-6.7804h10.7603c2.9953 0 5.3865-2.4987 5.3865-5.5465V99.1193c0-2.958-2.463-5.18-5.3865-5.6737-1.8506-.3121-3.7708-.4539-5.6124-.4452zm-5.826 3.3457c1.1129 0 2.0216.9357 2.0216 2.0862 0 1.1465-.9087 2.0736-2.0215 2.0736-1.1168 0-2.0215-.927-2.0215-2.0736 0-1.1505.9047-2.0862 2.0215-2.0862z" fill="#0069FF"/><path d="M468.408 104.6658v4.8467c0 3.7577-3.1444 6.9204-6.73 6.9204h-10.7603c-2.9474 0-5.3864 2.5558-5.3864 5.5465v10.3932c0 2.958 2.5387 4.6978 5.3864 5.5465 3.41 1.0159 6.6802 1.1995 10.7603 0 2.7121-.7956 5.3865-2.3968 5.3865-5.5465v-4.1598H456.304v-1.3867h16.1468c3.131 0 4.2976-2.2126 5.3864-5.5337 1.1248-3.419 1.077-6.707 0-11.093-.7737-3.1578-2.2515-5.5336-5.3864-5.5336h-4.043zm-6.052 26.3202c1.1168 0 2.0215.927 2.0215 2.0736 0 1.1505-.9047 2.0862-2.0215 2.0862-1.1127 0-2.0214-.9357-2.0214-2.0862 0-1.1465.9087-2.0736 2.0214-2.0736z" fill-opacity=".4701" fill="#005BFF"/></g></g><g transform="translate(195 95)" fill="#BECBE2"><rect y="27" width="60" height="6" rx="3"/><rect transform="rotate(-90 30 30)" y="27" width="60" height="6" rx="3"/></g></g></svg>
