<svg width="41" height="41" xmlns="http://www.w3.org/2000/svg"><defs><linearGradient x1="50.0689%" y1="3.0581%" x2="50.0689%" y2="121.4053%" id="a"><stop stop-color="#6369FF" stop-opacity=".3" offset="0%"/><stop stop-color="#6369FF" stop-opacity="0" offset="100%"/></linearGradient></defs><g fill="none" fill-rule="evenodd"><path fill="url(#a)" fill-rule="nonzero" d="M.3911 5.7355h34.3478v30.7631H.3911z" transform="translate(3 4)"/><path d="M4.7598 4h31.48c.9777 0 1.7598.7821 1.7598 1.7598v27.5695a1.7524 1.7524 0 0 1-1.7598 1.7597h-31.48A1.7524 1.7524 0 0 1 3 33.3293V5.7598C3 4.782 3.7821 4 4.7598 4zM3 9.7355h34.7389" stroke="#120078" stroke-width="2"/><path d="M6.2588 6.8678H8.247M10.1917 6.8678h2.0084" stroke="#6369FF" stroke-width="2"/><g stroke="#6369FF" stroke-width="2"><path d="M15.579 16.7745h3.9757M9.1266 16.7745h4.432M23.7912 20.4896h3.3892M14.3407 20.4896h7.5604M9.1266 20.4896h3.1936M19.294 24.2698h5.0838M9.1266 24.2698h8.3425M16.6218 27.9848h3.4544M9.1266 27.9848h5.2792"/></g></g></svg>
