<svg width="41" height="41" xmlns="http://www.w3.org/2000/svg"><defs><linearGradient x1="41.7509%" y1="58.2996%" x2="83.0273%" y2="17.0233%" id="a"><stop stop-color="#6369FF" stop-opacity=".4" offset="0%"/><stop stop-color="#6369FF" stop-opacity="0" offset="100%"/></linearGradient></defs><g fill="none" fill-rule="evenodd"><path d="M31.8825 6.9225C25.155.195 14.1375.195 7.41 6.9225L31.8825 31.395c6.7275-6.7275 6.7275-17.6475 0-24.4725z" fill="url(#a)" fill-rule="nonzero" transform="translate(1 2)"/><g stroke-width="2" transform="translate(1 2)"><path d="M16.575 15.6c1.8525-1.8525 4.7775-1.8525 6.5325 0 1.8525 1.8525 1.8525 4.7775 0 6.5325" stroke="#120078" fill="#FFF" fill-rule="nonzero"/><path d="M7.7025 6.825c6.7275-6.7275 17.55-6.7275 24.18 0 6.63 6.7275 6.7275 17.55 0 24.18M9.4575 24.2775l-7.8 7.8M14.235 29.1525L9.555 33.93" stroke="#6369FF"/><circle stroke="#6369FF" fill="#FFF" fill-rule="nonzero" cx="19.305" cy="1.8525" r="1.8525"/><circle stroke="#6369FF" fill="#FFF" fill-rule="nonzero" cx="28.86" cy="4.485" r="2.8275"/><path d="M.6825.39l37.635 37.635" stroke="#120078"/></g></g></svg>
